<svg t="1617693684645" class="icon" viewBox="0 0 1024 1024" version="1.1" xmlns="http://www.w3.org/2000/svg" p-id="2056">
    <path d="M447.055 72.033c-71.545 1.536-128.99 59.975-128.99 131.763v28.69l-96.665 0.002c-73.675 0-133.4 59.693-133.4 133.329V511.43h98.768c41.309 0 74.796 33.47 74.796 74.756s-33.487 74.756-74.796 74.756H88V811.67C88 885.306 147.725 945 221.4 945h147.254v-92.033c0-42.022 34.083-76.086 76.127-76.086 42.043 0 76.126 34.064 76.126 76.086V945h148.95l2.205-0.018c72.657-1.177 131.194-60.412 131.194-133.311l-0.002-94.246 31.221 0.002c70.43 0 127.525-57.064 127.525-127.457l-0.017-2.107c-1.126-69.42-57.782-125.35-127.508-125.35l-31.221-0.002 0.002-96.694-0.018-2.205c-1.178-72.619-60.444-131.124-133.382-131.124l-92.011-0.002 0.638-29.141c0.025-1.165 0.035-2.33 0.029-3.496-0.38-70.985-58.262-128.224-129.285-127.847l-2.172 0.03z m2.491 59.737c37.997-0.201 68.964 30.421 69.166 68.398 0.004 0.623-0.001 1.247-0.015 1.87l-1.974 90.218h153.133c40.648 0 73.6 32.934 73.6 73.56v156.466h91.02c37.403 0 67.724 30.305 67.724 67.688 0 37.384-30.321 67.69-67.725 67.69h-91.019v154.01l-0.01 1.217c-0.65 40.066-33.348 72.345-73.59 72.345h-89.15l0.001-32.265c0-75.03-60.856-135.855-135.926-135.855l-2.248 0.018c-74.033 1.2-133.679 61.557-133.679 135.837l-0.001 32.265H221.4l-1.217-0.01c-40.087-0.65-72.383-33.331-72.383-73.551v-90.96h38.968c74.335 0 134.596-60.229 134.596-134.524l-0.018-2.225c-1.189-73.27-60.986-132.3-134.578-132.3l-38.968-0.001v-85.844c0-40.627 32.952-73.561 73.6-73.561h156.466v-88.46c0-39.629 32.03-71.814 71.68-72.026z" fill="#6fb1ed" p-id="2057"></path>
</svg>