<svg t="1617693936157" class="icon" viewBox="0 0 1024 1024" version="1.1" xmlns="http://www.w3.org/2000/svg" p-id="4806">
    <path d="M768.9 955.9H255.1c-65 0-118-52.9-118-118V186.1c0-65 52.9-118 118-118h281.5c11 0 20 9 20 20s-9 20-20 20H255.1c-43 0-78 35-78 78v651.8c0 43 35 78 78 78h513.8c43 0 78-35 78-78V186.1c0-43-35-78-78-78-11 0-20-9-20-20s9-20 20-20c65 0 118 52.9 118 118v651.8c0 65-53 118-118 118z" p-id="4807" fill="#8a8a8a"></path>
    <path d="M748.6 394H275.4c-11 0-20-9-20-20s9-20 20-20h473.1c11 0 20 9 20 20s-8.9 20-19.9 20zM748.6 532H275.4c-11 0-20-9-20-20s9-20 20-20h473.1c11 0 20 9 20 20s-8.9 20-19.9 20zM571.1 670H275.4c-11 0-20-9-20-20s9-20 20-20h295.7c11 0 20 9 20 20s-8.9 20-20 20z" p-id="4808" fill="#8a8a8a"></path>
</svg>