<svg t="1617693886473" class="icon" viewBox="0 0 1024 1024" version="1.1" xmlns="http://www.w3.org/2000/svg" p-id="3878">
    <path d="M314.7 296c-58.2 0-107.5 49.3-107.5 107.5S256.5 511 314.7 511c62.7 4.5 107.5-44.8 107.5-107.5 0-58.3-44.8-107.5-107.5-107.5z m0 174.6c-35.8 0-67.2-31.3-67.2-67.2 0-35.8 31.3-67.2 67.2-67.2 35.8 0 67.2 31.3 67.2 67.2 0 35.8-31.3 67.2-67.2 67.2z m564.2-317.9H144.6c-44.8 0-80.6 35.8-80.6 80.6V793c0 44.8 35.8 80.6 80.6 80.6h734.3c44.8 0 80.6-35.8 80.6-80.6V233.3c0-44.8-44.8-80.6-85.1-80.6h4.5z m26.9 626.8c0 22.4-17.9 44.8-44.8 44.8H158c-22.4 0-44.8-17.9-44.8-44.8v-35.8l192.5-107.5 125.4 71.6c9 4.5 31.3 9 49.3-9L758 457.1l147.8 80.6v241.8z m0-300L767 403.4c-22.4-9-44.8 17.9-49.3 17.9L444.6 654.2l-111.9-62.7c-4.5-4.5-22.4-17.9-40.3-9L113.2 681V246.7c0-22.4 17.9-44.8 44.8-44.8h707.5c22.4 0 44.8 17.9 44.8 44.8v232.8h-4.5z m0 0" p-id="3879" fill="#8a8a8a"></path>
</svg>